<?xml version="1.0" encoding="UTF-8"?>
<!DOCTYPE svg PUBLIC "-//W3C//DTD SVG 1.1//EN" "http://www.w3.org/Graphics/SVG/1.1/DTD/svg11.dtd">
<!-- Creator: CorelDRAW 2017 -->
<svg xmlns="http://www.w3.org/2000/svg" xml:space="preserve" width="8.4666mm" height="4.2332mm" version="1.1" style="shape-rendering:geometricPrecision; text-rendering:geometricPrecision; image-rendering:optimizeQuality; fill-rule:evenodd; clip-rule:evenodd"
viewBox="0 0 846.66 423.32"
 xmlns:xlink="http://www.w3.org/1999/xlink">
 <defs>
  <style type="text/css">
   <![CDATA[
    .str2 {stroke:#FEFEFE;stroke-width:20;stroke-miterlimit:22.9256}
    .str3 {stroke:#2B2A29;stroke-width:20;stroke-miterlimit:22.9256}
    .str0 {stroke:#2B2A29;stroke-width:20;stroke-miterlimit:22.9256}
    .str1 {stroke:#FEFEFE;stroke-width:7.62;stroke-miterlimit:22.9256}
    .fil1 {fill:none}
    .fil0 {fill:#FEFEFE}
    .fil3 {fill:#7688A1}
    .fil2 {fill:#3AE2CE}
    .fil4 {fill:#FFE600}
   ]]>
  </style>
 </defs>
 <g id="Слой_x0020_1">
  <metadata id="CorelCorpID_0Corel-Layer"/>
  <polygon class="fil0 str0" points="93.13,304.79 165.1,304.79 93.13,194.73 173.98,106.19 127,67.73 16.93,194.73 "/>
  <polygon class="fil1 str1" points="211.66,100 294.29,193.69 207.43,303.2 135.46,193.14 "/>
  <polygon class="fil1 str1" points="457.2,76.19 529.16,194.73 461.4,304.25 253.96,304.25 325.96,194.73 245.53,76.19 "/>
  <polygon class="fil2 str2" points="491.06,67.73 694.26,67.73 745.06,126.99 643.46,126.99 668.86,160.86 745.06,160.86 778.93,198.96 745.06,228.59 673.1,228.59 651.93,258.23 723.9,258.23 681.56,304.79 491.06,304.79 575.73,194.73 "/>
  <polygon class="fil3 str3" points="93.13,194.73 173.98,106.19 127,67.73 16.93,194.73 93.13,304.79 165.1,304.79 "/>
  <polygon class="fil4 str2" points="93.13,194.73 173.98,106.19 127,67.73 16.93,194.73 93.13,304.79 165.1,304.79 "/>
 </g>
</svg>
